<svg xmlns="http://www.w3.org/2000/svg" version="1.1" viewBox="0 0 3800 841"
     height="400px"
     zoomAndPan="magnify"
     style="background: #ffffff"
     >

  <defs>
    <style>@import url(https://fonts.googleapis.com/css?family=Open+Sans:400,700);</style>
  </defs>
  <defs joint-selector="defs"></defs>
  <g joint-selector="layers" transform="matrix(1,0,0,1,0,0)">
    <g></g>
    <g><!--z-index:-3--><!--z-index:-2--><!--z-index:-1--><!--z-index:0--><!--z-index:1--><!--z-index:2--><!--z-index:3--><!--z-index:4--><!--z-index:5--><!--z-index:6--><!--z-index:7--><!--z-index:8--><!--z-index:9--><!--z-index:10--><!--z-index:11--><!--z-index:12--><!--z-index:13--><!--z-index:14-->
      <g id="j_34" transform="translate(20,804.6)">
        <g id="v-272">
          <text  id="v-273" font-size="22px" xml:space="preserve" y="0.8em" font-weight="normal" text-anchor="start" fill="#aaaaaa" pointer-events="none" display="block" font-family="Open Sans"><tspan dy="0" >Monday, March 10, 2025 at 5:15 PM Central European Standard Time</tspan></text>
        </g>
      </g><!--z-index:15-->
      <g id="j_33" transform="translate(20,761.4)">
        <g id="v-270">
          <text  id="v-271" font-size="36px" xml:space="preserve" y="0.8em" font-weight="normal" text-anchor="start" fill="#000000" pointer-events="none" display="block" font-family="Open Sans"><tspan dy="0" >[Component] Software System - Web Application</tspan></text>
        </g>
      </g><!--z-index:16-->
      <g id="j_35" transform="translate(200,199)" style="">
        <g id="v-274" style="opacity: 1;">
          <rect x="0" y="160" width="400" height="240" rx="70" id="v-276" stroke="#073b6f" stroke-width="2"
                pointer-events="visiblePainted" fill="#08427b"
                style="fill: rgb(8, 66, 123); stroke: rgb(7, 59, 111);"></rect>
          <circle cx="200" cy="88.88888888888889" r="88.88888888888889" id="v-275" stroke="#073b6f" stroke-width="2"
                  pointer-events="visiblePainted" fill="#08427b"
                  style="fill: rgb(8, 66, 123); stroke: rgb(7, 59, 111);"></circle>
          <line x1="80" y1="266.6666666666667" x2="80" y2="400" id="v-282" stroke="#073b6f" stroke-width="2"
                style="stroke: rgb(7, 59, 111);"></line>
          <line x1="320" y1="266.6666666666667" x2="320" y2="400" id="v-283" stroke="#073b6f" stroke-width="2"
                style="stroke: rgb(7, 59, 111);"></line>
          <text id="v-277" font-size="34" xml:space="preserve" y="0.8em" font-weight="bold" text-anchor="middle"
                pointer-events="visible" font-family="Open Sans" fill="#ffffff" transform="matrix(1,0,0,1,200,251.9)"
                style="fill: rgb(255, 255, 255);"><tspan dy="0" >User</tspan></text><text id="v-278" font-size="17"
                                                                                          xml:space="preserve" y="0.8em"
                                                                                          text-anchor="middle"
                                                                                          font-family="Open Sans"
                                                                                          fill="#ffffff"
                                                                                          transform="matrix(1,0,0,1,200,292.7)"
                                                                                          style="fill: rgb(255, 255, 255);"><tspan dy="0" >[Person]</tspan></text><text
          id="v-279" font-size="24" xml:space="preserve" display="none" y="0.8em" text-anchor="middle"
          font-family="Open Sans" fill="#ffffff" transform="matrix(1,0,0,1,200,313.1)"
          style="fill: rgb(255, 255, 255);"><tspan dy="0" style="fill-opacity: 0; stroke-opacity: 0;" >-</tspan></text>
          <g id="v-280" font-weight="normal" text-anchor="middle" color="#ffffff" transform="matrix(1,0,0,1,197.5,368)"
             display="none" style="fill: rgb(255, 255, 255);">
            <g></g>
            <g></g>
            <g></g>
            <g></g>
          </g>
          <image id="v-281"></image>
        </g>
      </g><!--z-index:17-->
      <g id="j_37" transform="translate(880,229)" style="">
        <g id="v-294">
          <rect id="v-295" width="1990" height="411" rx="0" ry="0" fill="#ffffff" stroke="#3c7fbf" stroke-width="1"
                stroke-dasharray="20,20" pointer-events="none"></rect>
          <text id="v-296" font-size="24px" xml:space="preserve" y="372" font-weight="normal" fill="#3c7fbf"
                text-anchor="start" pointer-events="visible" font-family="Open Sans" transform="matrix(1,0,0,1,15,0)"><tspan dy="0" >Web Application</tspan></text><text
          id="v-297" font-size="17px" xml:space="preserve" y="396" font-weight="normal" fill="#3c7fbf"
          text-anchor="start" pointer-events="visible" font-family="Open Sans" transform="matrix(1,0,0,1,15,0)"><tspan dy="0" >[Container]</tspan></text>
          <image id="v-298" pointer-events="visible"></image>
        </g>
      </g><!--z-index:18-->
      <g id="j_36" transform="translate(900,249)" style="">
        <g id="v-287" style="opacity: 1;">
          <rect id="v-288" rx="1" ry="1" stroke="#3c7fbf" stroke-width="2" pointer-events="visiblePainted"
                fill="#438dd4" width="450" height="300"
                style="fill: rgb(67, 141, 212); stroke: rgb(60, 127, 191);"></rect>
          <text id="v-289" font-size="34" xml:space="preserve" y="0.8em" font-weight="bold" text-anchor="middle"
                pointer-events="visible" font-family="Open Sans" fill="#ffffff" transform="matrix(1,0,0,1,225,88.1)"
                style="fill: rgb(255, 255, 255);"><tspan dy="0" >Controller</tspan></text><text id="v-290"
                                                                                                font-size="17"
                                                                                                xml:space="preserve"
                                                                                                y="0.8em"
                                                                                                text-anchor="middle"
                                                                                                font-family="Open Sans"
                                                                                                fill="#ffffff"
                                                                                                transform="matrix(1,0,0,1,225,128.9)"
                                                                                                style="fill: rgb(255, 255, 255);"><tspan dy="0" >[Component: Spring MVC]</tspan></text><text
          id="v-291" font-size="24" xml:space="preserve" y="0.8em" text-anchor="middle" font-family="Open Sans"
          fill="#ffffff" transform="matrix(1,0,0,1,225,159.3)" style="fill: rgb(255, 255, 255);"><tspan dy="0" >Handles HTTP requests and</tspan>
          <tspan dy="1.2em" x="0">responses</tspan></text>
          <g id="v-292" color="#ffffff" transform="matrix(1,0,0,1,210,268)" display="none"
             style="fill: rgb(255, 255, 255);">
            <g transform="translate(5 0)">
              <svg xmlns="http://www.w3.org/2000/svg" width="20" height="20" fill="currentColor" viewBox="0 0 16 16">
                <path fill-rule="evenodd"
                      d="M6.5 12a5.5 5.5 0 1 0 0-11 5.5 5.5 0 0 0 0 11zM13 6.5a6.5 6.5 0 1 1-13 0 6.5 6.5 0 0 1 13 0z"></path>
                <path
                  d="M10.344 11.742c.03.04.062.078.098.115l3.85 3.85a1 1 0 0 0 1.415-1.414l-3.85-3.85a1.007 1.007 0 0 0-.115-.1 6.538 6.538 0 0 1-1.398 1.4z"></path>
                <path fill-rule="evenodd"
                      d="M6.5 3a.5.5 0 0 1 .5.5V6h2.5a.5.5 0 0 1 0 1H7v2.5a.5.5 0 0 1-1 0V7H3.5a.5.5 0 0 1 0-1H6V3.5a.5.5 0 0 1 .5-.5z"></path>
              </svg>
            </g>
            <g></g>
            <g></g>
            <g></g>
          </g>
          <image id="v-293"></image>
        </g>
      </g><!--z-index:19-->
      <g id="j_38" transform="translate(1650,249)" style="">
        <g id="v-299" style="opacity: 1;">
          <rect id="v-300" rx="1" ry="1" stroke="#3c7fbf" stroke-width="2" pointer-events="visiblePainted"
                fill="#438dd4" width="450" height="300"
                style="fill: rgb(67, 141, 212); stroke: rgb(60, 127, 191);"></rect>
          <text id="v-301" font-size="34" xml:space="preserve" y="0.8em" font-weight="bold" text-anchor="middle"
                pointer-events="visible" font-family="Open Sans" fill="#ffffff" transform="matrix(1,0,0,1,225,102.5)"
                style="fill: rgb(255, 255, 255);"><tspan dy="0" >Service</tspan></text><text id="v-302" font-size="17"
                                                                                             xml:space="preserve"
                                                                                             y="0.8em"
                                                                                             text-anchor="middle"
                                                                                             font-family="Open Sans"
                                                                                             fill="#ffffff"
                                                                                             transform="matrix(1,0,0,1,225,143.3)"
                                                                                             style="fill: rgb(255, 255, 255);"><tspan dy="0" >[Component: Spring Service]</tspan></text><text
          id="v-303" font-size="24" xml:space="preserve" y="0.8em" text-anchor="middle" font-family="Open Sans"
          fill="#ffffff" transform="matrix(1,0,0,1,225,173.7)" style="fill: rgb(255, 255, 255);"><tspan dy="0" >Business logic layer</tspan></text>
          <g id="v-304" color="#ffffff" transform="matrix(1,0,0,1,222.5,268)" display="none"
             style="fill: rgb(255, 255, 255);">
            <g></g>
            <g></g>
            <g></g>
            <g></g>
          </g>
          <image id="v-305"></image>
        </g>
      </g><!--z-index:20-->
      <g id="j_39" transform="translate(2400,249)" style="">
        <g id="v-306" style="opacity: 1;">
          <rect id="v-307" rx="1" ry="1" stroke="#3c7fbf" stroke-width="2" pointer-events="visiblePainted"
                fill="#438dd4" width="450" height="300"
                style="fill: rgb(67, 141, 212); stroke: rgb(60, 127, 191);"></rect>
          <text id="v-308" font-size="34" xml:space="preserve" y="0.8em" font-weight="bold" text-anchor="middle"
                pointer-events="visible" font-family="Open Sans" fill="#ffffff" transform="matrix(1,0,0,1,225,102.5)"
                style="fill: rgb(255, 255, 255);"><tspan dy="0" >Repository</tspan></text><text id="v-309"
                                                                                                font-size="17"
                                                                                                xml:space="preserve"
                                                                                                y="0.8em"
                                                                                                text-anchor="middle"
                                                                                                font-family="Open Sans"
                                                                                                fill="#ffffff"
                                                                                                transform="matrix(1,0,0,1,225,143.3)"
                                                                                                style="fill: rgb(255, 255, 255);"><tspan dy="0" >[Component: Spring Data JPA]</tspan></text><text
          id="v-310" font-size="24" xml:space="preserve" y="0.8em" text-anchor="middle" font-family="Open Sans"
          fill="#ffffff" transform="matrix(1,0,0,1,225,173.7)" style="fill: rgb(255, 255, 255);"><tspan dy="0" >Data access layer</tspan></text>
          <g id="v-311" color="#ffffff" transform="matrix(1,0,0,1,222.5,268)" display="none"
             style="fill: rgb(255, 255, 255);">
            <g></g>
            <g></g>
            <g></g>
            <g></g>
          </g>
          <image id="v-312"></image>
        </g>
      </g><!--z-index:21-->
      <g id="j_40" transform="translate(3150,249)" style="">
        <g id="v-313" style="opacity: 1;">
          <path d="M 0,30 a 225,30 0,0,0 450 0 a 225,30 0,0,0 -450 0 l 0,240 a 225,30 0,0,0 450 0 l 0,-240" id="v-314"
                stroke="#3c7fbf" stroke-width="2" pointer-events="visiblePainted" fill="#438dd4"
                style="fill: rgb(67, 141, 212); stroke: rgb(60, 127, 191);"></path>
          <rect id="v-315" stroke-width="0" pointer-events="visiblePainted" fill="none" stroke="none" width="450"
                height="270" x="0" y="30"></rect>
          <text id="v-316" font-size="34" xml:space="preserve" y="0.8em" font-weight="bold" text-anchor="middle"
                pointer-events="visible" font-family="Open Sans" fill="#ffffff" transform="matrix(1,0,0,1,225,144.4)"
                style="fill: rgb(255, 255, 255);"><tspan dy="0" >Database Schema</tspan></text><text id="v-317"
                                                                                                     font-size="17"
                                                                                                     xml:space="preserve"
                                                                                                     y="0.8em"
                                                                                                     text-anchor="middle"
                                                                                                     font-family="Open Sans"
                                                                                                     fill="#ffffff"
                                                                                                     transform="matrix(1,0,0,1,225,185.2)"
                                                                                                     style="fill: rgb(255, 255, 255);"><tspan dy="0" >[Container]</tspan></text><text
          id="v-318" font-size="24" xml:space="preserve" display="none" y="0.8em" text-anchor="middle"
          font-family="Open Sans" fill="#ffffff" transform="matrix(1,0,0,1,225,205.6)"
          style="fill: rgb(255, 255, 255);"><tspan dy="0" style="fill-opacity: 0; stroke-opacity: 0;" >-</tspan></text>
          <g id="v-319" font-weight="normal" text-anchor="middle" color="#ffffff" transform="matrix(1,0,0,1,222.5,268)"
             display="none" style="fill: rgb(255, 255, 255);">
            <g></g>
            <g></g>
            <g></g>
            <g></g>
          </g>
          <image id="v-320"></image>
        </g>
      </g><!--z-index:22-->
      <g id="j_41">
        <path stroke="#707070" d="M 1350 399 L 1650 399" id="v-330" stroke-width="2" stroke-dasharray="30 30"
              fill="none" style="opacity: 1;"></path>
        <path fill="black" stroke="black" d="M 0 0 0 0" transform="matrix(1,0,0,1,1350,399)"></path>
        <path fill="#707070" stroke="#707070" d="M 20 0 L 0 10 L 20 20 z" id="v-332"
              transform="matrix(-1,1.2246467991473532e-16,-1.2246467991473532e-16,-1,1650,409)"
              style="opacity: 1;"></path>
        <path d="M 1350 399 L 1650 399" id="v-331" fill="none"
              style="cursor: auto; pointer-events: visiblepainted;"></path>
        <g>
          <g id="v-324" label-idx="0" cursor="move" transform="matrix(1,0,0,1,1500,399)"
             style="cursor: default; opacity: 1;">
            <rect joint-selector="rect" id="v-327" fill="#ffffff" rx="3" ry="3" pointer-events="none"
                  width="85.34420776367188" height="33.31428909301758" transform="matrix(1,0,0,1,-42.7,-16.6)"></rect>
            <text joint-selector="text" id="v-326" font-size="24px" xml:space="preserve" y="0.8em" fill="#707070"
                  text-anchor="middle" pointer-events="none" font-family="Open Sans" font-weight="normal"
                  transform="matrix(1,0,0,1,0,-10.1)"><tspan dy="0" >Invokes</tspan></text>
          </g>
          <g id="v-325" label-idx="1" cursor="move" transform="matrix(1,0,0,1,1490,425.3999938964844)"
             style="cursor: default; opacity: 1;">
            <rect joint-selector="rect" id="v-329" fill="#ffffff" rx="3" ry="3" width="0" height="0"
                  transform="matrix(1,0,0,1,0,0)" display="none"></rect>
            <text joint-selector="text" id="v-328" fill="#000000" font-size="14" text-anchor="middle"
                  pointer-events="none"></text>
          </g>
        </g>
        <g display="none" style="display: none;"></g>
        <g id="v-334" display="none">
          <g id="v-322">
            <path end="source" d="M 26 0 L 0 13 L 26 26 z"></path>
          </g>
          <g id="v-323">
            <path end="target" d="M 26 0 L 0 13 L 26 26 z"></path>
          </g>
        </g>
        <g id="v-333" display="none">
          <g id="v-321" transform="translate(1390, 399) ">
            <g event="remove">
              <circle r="11"></circle>
              <path transform="scale(.8) translate(-16, -16)"
                    d="M24.778,21.419 19.276,15.917 24.777,10.415 21.949,7.585 16.447,13.087 10.945,7.585 8.117,10.415 13.618,15.917 8.116,21.419 10.946,24.248 16.447,18.746 21.948,24.248z"></path>
              <title>Remove link.</title>
            </g>
            <g event="link:options">
              <circle r="11" transform="translate(25)"></circle>
              <path fill="white" transform="scale(.55) translate(29, -16)"
                    d="M31.229,17.736c0.064-0.571,0.104-1.148,0.104-1.736s-0.04-1.166-0.104-1.737l-4.377-1.557c-0.218-0.716-0.504-1.401-0.851-2.05l1.993-4.192c-0.725-0.91-1.549-1.734-2.458-2.459l-4.193,1.994c-0.647-0.347-1.334-0.632-2.049-0.849l-1.558-4.378C17.165,0.708,16.588,0.667,16,0.667s-1.166,0.041-1.737,0.105L12.707,5.15c-0.716,0.217-1.401,0.502-2.05,0.849L6.464,4.005C5.554,4.73,4.73,5.554,4.005,6.464l1.994,4.192c-0.347,0.648-0.632,1.334-0.849,2.05l-4.378,1.557C0.708,14.834,0.667,15.412,0.667,16s0.041,1.165,0.105,1.736l4.378,1.558c0.217,0.715,0.502,1.401,0.849,2.049l-1.994,4.193c0.725,0.909,1.549,1.733,2.459,2.458l4.192-1.993c0.648,0.347,1.334,0.633,2.05,0.851l1.557,4.377c0.571,0.064,1.148,0.104,1.737,0.104c0.588,0,1.165-0.04,1.736-0.104l1.558-4.377c0.715-0.218,1.399-0.504,2.049-0.851l4.193,1.993c0.909-0.725,1.733-1.549,2.458-2.458l-1.993-4.193c0.347-0.647,0.633-1.334,0.851-2.049L31.229,17.736zM16,20.871c-2.69,0-4.872-2.182-4.872-4.871c0-2.69,2.182-4.872,4.872-4.872c2.689,0,4.871,2.182,4.871,4.872C20.871,18.689,18.689,20.871,16,20.871z"></path>
              <title>Link options.</title>
            </g>
          </g>
        </g>
      </g><!--z-index:23-->
      <g id="j_42">
        <path stroke="#707070" d="M 2100 399 L 2400 399" id="v-344" stroke-width="2" stroke-dasharray="30 30"
              fill="none" style="opacity: 1;"></path>
        <path fill="black" stroke="black" d="M 0 0 0 0" transform="matrix(1,0,0,1,2100,399)"></path>
        <path fill="#707070" stroke="#707070" d="M 20 0 L 0 10 L 20 20 z" id="v-346"
              transform="matrix(-1,1.2246467991473532e-16,-1.2246467991473532e-16,-1,2400,409)"
              style="opacity: 1;"></path>
        <path d="M 2100 399 L 2400 399" id="v-345" fill="none"
              style="cursor: auto; pointer-events: visiblepainted;"></path>
        <g>
          <g id="v-338" label-idx="0" cursor="move" transform="matrix(1,0,0,1,2250,399)"
             style="cursor: default; opacity: 1;">
            <rect joint-selector="rect" id="v-341" fill="#ffffff" rx="3" ry="3" pointer-events="none"
                  width="53.82813262939453" height="33.31428909301758" transform="matrix(1,0,0,1,-26.9,-16.6)"></rect>
            <text joint-selector="text" id="v-340" font-size="24px" xml:space="preserve" y="0.8em" fill="#707070"
                  text-anchor="middle" pointer-events="none" font-family="Open Sans" font-weight="normal"
                  transform="matrix(1,0,0,1,0,-10.1)"><tspan dy="0" >Uses</tspan></text>
          </g>
          <g id="v-339" label-idx="1" cursor="move" transform="matrix(1,0,0,1,2240,425.3999938964844)"
             style="cursor: default; opacity: 1;">
            <rect joint-selector="rect" id="v-343" fill="#ffffff" rx="3" ry="3" width="0" height="0"
                  transform="matrix(1,0,0,1,0,0)" display="none"></rect>
            <text joint-selector="text" id="v-342" fill="#000000" font-size="14" text-anchor="middle"
                  pointer-events="none"></text>
          </g>
        </g>
        <g display="none" style="display: none;"></g>
        <g id="v-348" display="none">
          <g id="v-336">
            <path end="source" d="M 26 0 L 0 13 L 26 26 z"></path>
          </g>
          <g id="v-337">
            <path end="target" d="M 26 0 L 0 13 L 26 26 z"></path>
          </g>
        </g>
        <g id="v-347" display="none">
          <g id="v-335" transform="translate(2140, 399) ">
            <g event="remove">
              <circle r="11"></circle>
              <path transform="scale(.8) translate(-16, -16)"
                    d="M24.778,21.419 19.276,15.917 24.777,10.415 21.949,7.585 16.447,13.087 10.945,7.585 8.117,10.415 13.618,15.917 8.116,21.419 10.946,24.248 16.447,18.746 21.948,24.248z"></path>
              <title>Remove link.</title>
            </g>
            <g event="link:options">
              <circle r="11" transform="translate(25)"></circle>
              <path fill="white" transform="scale(.55) translate(29, -16)"
                    d="M31.229,17.736c0.064-0.571,0.104-1.148,0.104-1.736s-0.04-1.166-0.104-1.737l-4.377-1.557c-0.218-0.716-0.504-1.401-0.851-2.05l1.993-4.192c-0.725-0.91-1.549-1.734-2.458-2.459l-4.193,1.994c-0.647-0.347-1.334-0.632-2.049-0.849l-1.558-4.378C17.165,0.708,16.588,0.667,16,0.667s-1.166,0.041-1.737,0.105L12.707,5.15c-0.716,0.217-1.401,0.502-2.05,0.849L6.464,4.005C5.554,4.73,4.73,5.554,4.005,6.464l1.994,4.192c-0.347,0.648-0.632,1.334-0.849,2.05l-4.378,1.557C0.708,14.834,0.667,15.412,0.667,16s0.041,1.165,0.105,1.736l4.378,1.558c0.217,0.715,0.502,1.401,0.849,2.049l-1.994,4.193c0.725,0.909,1.549,1.733,2.459,2.458l4.192-1.993c0.648,0.347,1.334,0.633,2.05,0.851l1.557,4.377c0.571,0.064,1.148,0.104,1.737,0.104c0.588,0,1.165-0.04,1.736-0.104l1.558-4.377c0.715-0.218,1.399-0.504,2.049-0.851l4.193,1.993c0.909-0.725,1.733-1.549,2.458-2.458l-1.993-4.193c0.347-0.647,0.633-1.334,0.851-2.049L31.229,17.736zM16,20.871c-2.69,0-4.872-2.182-4.872-4.871c0-2.69,2.182-4.872,4.872-4.872c2.689,0,4.871,2.182,4.871,4.872C20.871,18.689,18.689,20.871,16,20.871z"></path>
              <title>Link options.</title>
            </g>
          </g>
        </g>
      </g><!--z-index:24-->
      <g id="j_43">
        <path stroke="#707070" d="M 2850 399 L 3150 399" id="v-361" stroke-width="2" stroke-dasharray="30 30"
              fill="none" style="opacity: 1;"></path>
        <path fill="black" stroke="black" d="M 0 0 0 0" transform="matrix(1,0,0,1,2850,399)"></path>
        <path fill="#707070" stroke="#707070" d="M 20 0 L 0 10 L 20 20 z" id="v-363"
              transform="matrix(-1,1.2246467991473532e-16,-1.2246467991473532e-16,-1,3150,409)"
              style="opacity: 1;"></path>
        <path d="M 2850 399 L 3150 399" id="v-362" fill="none"
              style="cursor: auto; pointer-events: visiblepainted;"></path>
        <g>
          <g id="v-355" label-idx="0" cursor="move" transform="matrix(1,0,0,1,3000,399)"
             style="cursor: default; opacity: 1;">
            <rect joint-selector="rect" id="v-358" fill="#ffffff" rx="3" ry="3" pointer-events="none"
                  width="177.40806579589844" height="62.11428642272949" transform="matrix(1,0,0,1,-88.7,-31)"></rect>
            <text joint-selector="text" id="v-357" font-size="24px" xml:space="preserve" y="0.8em" fill="#707070"
                  text-anchor="middle" pointer-events="none" font-family="Open Sans" font-weight="normal"
                  transform="matrix(1,0,0,1,0,-24.5)"><tspan dy="0" >Reads from and</tspan>
              <tspan dy="1.2em" x="0">writes to</tspan></text>
          </g>
          <g id="v-356" label-idx="1" cursor="move" transform="matrix(1,0,0,1,2990,439.79998779296875)"
             style="cursor: default; opacity: 1;">
            <rect joint-selector="rect" id="v-360" fill="#ffffff" rx="3" ry="3" width="0" height="0"
                  transform="matrix(1,0,0,1,0,0)" display="none"></rect>
            <text joint-selector="text" id="v-359" fill="#000000" font-size="14" text-anchor="middle"
                  pointer-events="none"></text>
          </g>
        </g>
        <g display="none" style="display: none;"></g>
        <g id="v-365" display="none">
          <g id="v-353">
            <path end="source" d="M 26 0 L 0 13 L 26 26 z"></path>
          </g>
          <g id="v-354">
            <path end="target" d="M 26 0 L 0 13 L 26 26 z"></path>
          </g>
        </g>
        <g id="v-364" display="none">
          <g id="v-352" transform="translate(2890, 399) ">
            <g event="remove">
              <circle r="11"></circle>
              <path transform="scale(.8) translate(-16, -16)"
                    d="M24.778,21.419 19.276,15.917 24.777,10.415 21.949,7.585 16.447,13.087 10.945,7.585 8.117,10.415 13.618,15.917 8.116,21.419 10.946,24.248 16.447,18.746 21.948,24.248z"></path>
              <title>Remove link.</title>
            </g>
            <g event="link:options">
              <circle r="11" transform="translate(25)"></circle>
              <path fill="white" transform="scale(.55) translate(29, -16)"
                    d="M31.229,17.736c0.064-0.571,0.104-1.148,0.104-1.736s-0.04-1.166-0.104-1.737l-4.377-1.557c-0.218-0.716-0.504-1.401-0.851-2.05l1.993-4.192c-0.725-0.91-1.549-1.734-2.458-2.459l-4.193,1.994c-0.647-0.347-1.334-0.632-2.049-0.849l-1.558-4.378C17.165,0.708,16.588,0.667,16,0.667s-1.166,0.041-1.737,0.105L12.707,5.15c-0.716,0.217-1.401,0.502-2.05,0.849L6.464,4.005C5.554,4.73,4.73,5.554,4.005,6.464l1.994,4.192c-0.347,0.648-0.632,1.334-0.849,2.05l-4.378,1.557C0.708,14.834,0.667,15.412,0.667,16s0.041,1.165,0.105,1.736l4.378,1.558c0.217,0.715,0.502,1.401,0.849,2.049l-1.994,4.193c0.725,0.909,1.549,1.733,2.459,2.458l4.192-1.993c0.648,0.347,1.334,0.633,2.05,0.851l1.557,4.377c0.571,0.064,1.148,0.104,1.737,0.104c0.588,0,1.165-0.04,1.736-0.104l1.558-4.377c0.715-0.218,1.399-0.504,2.049-0.851l4.193,1.993c0.909-0.725,1.733-1.549,2.458-2.458l-1.993-4.193c0.347-0.647,0.633-1.334,0.851-2.049L31.229,17.736zM16,20.871c-2.69,0-4.872-2.182-4.872-4.871c0-2.69,2.182-4.872,4.872-4.872c2.689,0,4.871,2.182,4.871,4.872C20.871,18.689,18.689,20.871,16,20.871z"></path>
              <title>Link options.</title>
            </g>
          </g>
        </g>
      </g><!--z-index:25-->
      <g id="j_44">
        <path stroke="#707070" d="M 600 399 L 900 399" id="v-375" stroke-width="2" stroke-dasharray="30 30" fill="none"
              style="opacity: 1;"></path>
        <path fill="black" stroke="black" d="M 0 0 0 0" transform="matrix(1,0,0,1,600,399)"></path>
        <path fill="#707070" stroke="#707070" d="M 20 0 L 0 10 L 20 20 z" id="v-377"
              transform="matrix(-1,1.2246467991473532e-16,-1.2246467991473532e-16,-1,900,409)"
              style="opacity: 1;"></path>
        <path d="M 600 399 L 900 399" id="v-376" fill="none"
              style="cursor: auto; pointer-events: visiblepainted;"></path>
        <g>
          <g id="v-369" label-idx="0" cursor="move" transform="matrix(1,0,0,1,750,399)"
             style="cursor: default; opacity: 1;">
            <rect joint-selector="rect" id="v-372" fill="#ffffff" rx="3" ry="3" pointer-events="none"
                  width="53.82813262939453" height="33.31428909301758" transform="matrix(1,0,0,1,-26.9,-16.6)"></rect>
            <text joint-selector="text" id="v-371" font-size="24px" xml:space="preserve" y="0.8em" fill="#707070"
                  text-anchor="middle" pointer-events="none" font-family="Open Sans" font-weight="normal"
                  transform="matrix(1,0,0,1,0,-10.1)"><tspan dy="0" >Uses</tspan></text>
          </g>
          <g id="v-370" label-idx="1" cursor="move" transform="matrix(1,0,0,1,740,425.3999938964844)"
             style="cursor: default; opacity: 1;">
            <rect joint-selector="rect" id="v-374" fill="#ffffff" rx="3" ry="3" width="0" height="0"
                  transform="matrix(1,0,0,1,0,0)" display="none"></rect>
            <text joint-selector="text" id="v-373" fill="#000000" font-size="14" text-anchor="middle"
                  pointer-events="none"></text>
          </g>
        </g>
        <g display="none" style="display: none;"></g>
        <g id="v-379" display="none">
          <g id="v-367">
            <path end="source" d="M 26 0 L 0 13 L 26 26 z"></path>
          </g>
          <g id="v-368">
            <path end="target" d="M 26 0 L 0 13 L 26 26 z"></path>
          </g>
        </g>
        <g id="v-378" display="none">
          <g id="v-366" transform="translate(640, 399) ">
            <g event="remove">
              <circle r="11"></circle>
              <path transform="scale(.8) translate(-16, -16)"
                    d="M24.778,21.419 19.276,15.917 24.777,10.415 21.949,7.585 16.447,13.087 10.945,7.585 8.117,10.415 13.618,15.917 8.116,21.419 10.946,24.248 16.447,18.746 21.948,24.248z"></path>
              <title>Remove link.</title>
            </g>
            <g event="link:options">
              <circle r="11" transform="translate(25)"></circle>
              <path fill="white" transform="scale(.55) translate(29, -16)"
                    d="M31.229,17.736c0.064-0.571,0.104-1.148,0.104-1.736s-0.04-1.166-0.104-1.737l-4.377-1.557c-0.218-0.716-0.504-1.401-0.851-2.05l1.993-4.192c-0.725-0.91-1.549-1.734-2.458-2.459l-4.193,1.994c-0.647-0.347-1.334-0.632-2.049-0.849l-1.558-4.378C17.165,0.708,16.588,0.667,16,0.667s-1.166,0.041-1.737,0.105L12.707,5.15c-0.716,0.217-1.401,0.502-2.05,0.849L6.464,4.005C5.554,4.73,4.73,5.554,4.005,6.464l1.994,4.192c-0.347,0.648-0.632,1.334-0.849,2.05l-4.378,1.557C0.708,14.834,0.667,15.412,0.667,16s0.041,1.165,0.105,1.736l4.378,1.558c0.217,0.715,0.502,1.401,0.849,2.049l-1.994,4.193c0.725,0.909,1.549,1.733,2.459,2.458l4.192-1.993c0.648,0.347,1.334,0.633,2.05,0.851l1.557,4.377c0.571,0.064,1.148,0.104,1.737,0.104c0.588,0,1.165-0.04,1.736-0.104l1.558-4.377c0.715-0.218,1.399-0.504,2.049-0.851l4.193,1.993c0.909-0.725,1.733-1.549,2.458-2.458l-1.993-4.193c0.347-0.647,0.633-1.334,0.851-2.049L31.229,17.736zM16,20.871c-2.69,0-4.872-2.182-4.872-4.871c0-2.69,2.182-4.872,4.872-4.872c2.689,0,4.871,2.182,4.871,4.872C20.871,18.689,18.689,20.871,16,20.871z"></path>
              <title>Link options.</title>
            </g>
          </g>
        </g>
      </g><!--z-index:26-->
    </g>
    <g></g>
    <g></g>
    <g></g>
  </g>
</svg>
