<svg xmlns="http://www.w3.org/2000/svg" version="1.1" viewBox="0 0 2320 841"
     height="400px"
     width="963px"
     zoomAndPan="magnify"
     style="background: #ffffff">
  <defs>
    <style>@import url(https://fonts.googleapis.com/css?family=Open+Sans:400,700);</style>
  </defs>
  <defs joint-selector="defs"></defs>
  <g joint-selector="layers" transform="matrix(1,0,0,1,0,0)">
    <g></g>
    <g><!--z-index:-3--><!--z-index:-2--><!--z-index:-1--><!--z-index:0--><!--z-index:1--><!--z-index:2--><!--z-index:3--><!--z-index:4--><!--z-index:5--><!--z-index:6--><!--z-index:7--><!--z-index:8--><!--z-index:9--><!--z-index:10-->
      <g id="j_26" transform="translate(20,804.6)">
        <g id="v-204">
          <text  id="v-205" font-size="22px" xml:space="preserve" y="0.8em" font-weight="normal" text-anchor="start" fill="#aaaaaa" pointer-events="none" display="block" font-family="Open Sans"><tspan dy="0" >Monday, March 10, 2025 at 5:15 PM Central European Standard Time</tspan></text>
        </g>
      </g><!--z-index:11-->
      <g id="j_25" transform="translate(20,761.4)">
        <g id="v-202">
          <text  id="v-203" font-size="36px" xml:space="preserve" y="0.8em" font-weight="normal" text-anchor="start" fill="#000000" pointer-events="none" display="block" font-family="Open Sans"><tspan dy="0" >[Container] Software System</tspan></text>
        </g>
      </g><!--z-index:12-->
      <g id="j_27" transform="translate(200,199)" style="">
        <g id="v-206" style="opacity: 1;">
          <rect x="0" y="160" width="400" height="240" rx="70" id="v-208" stroke="#073b6f" stroke-width="2"
                pointer-events="visiblePainted" fill="#08427b"
                style="fill: rgb(8, 66, 123); stroke: rgb(7, 59, 111);"></rect>
          <circle cx="200" cy="88.88888888888889" r="88.88888888888889" id="v-207" stroke="#073b6f" stroke-width="2"
                  pointer-events="visiblePainted" fill="#08427b"
                  style="fill: rgb(8, 66, 123); stroke: rgb(7, 59, 111);"></circle>
          <line x1="80" y1="266.6666666666667" x2="80" y2="400" id="v-214" stroke="#073b6f" stroke-width="2"
                style="stroke: rgb(7, 59, 111);"></line>
          <line x1="320" y1="266.6666666666667" x2="320" y2="400" id="v-215" stroke="#073b6f" stroke-width="2"
                style="stroke: rgb(7, 59, 111);"></line>
          <text id="v-209" font-size="34" xml:space="preserve" y="0.8em" font-weight="bold" text-anchor="middle"
                pointer-events="visible" font-family="Open Sans" fill="#ffffff" transform="matrix(1,0,0,1,200,251.9)"
                style="fill: rgb(255, 255, 255);"><tspan dy="0" >User</tspan></text><text id="v-210" font-size="17"
                                                                                          xml:space="preserve" y="0.8em"
                                                                                          text-anchor="middle"
                                                                                          font-family="Open Sans"
                                                                                          fill="#ffffff"
                                                                                          transform="matrix(1,0,0,1,200,292.7)"
                                                                                          style="fill: rgb(255, 255, 255);"><tspan dy="0" >[Person]</tspan></text><text
          id="v-211" font-size="24" xml:space="preserve" display="none" y="0.8em" text-anchor="middle"
          font-family="Open Sans" fill="#ffffff" transform="matrix(1,0,0,1,200,313.1)"
          style="fill: rgb(255, 255, 255);"><tspan dy="0" style="fill-opacity: 0; stroke-opacity: 0;" >-</tspan></text>
          <g id="v-212" font-weight="normal" text-anchor="middle" color="#ffffff" transform="matrix(1,0,0,1,197.5,368)"
             display="none" style="fill: rgb(255, 255, 255);">
            <g></g>
            <g></g>
            <g></g>
            <g></g>
          </g>
          <image id="v-213"></image>
        </g>
      </g><!--z-index:13-->
      <g id="j_29" transform="translate(880,229)" style="">
        <g id="v-223">
          <rect id="v-224" width="1240" height="411" rx="0" ry="0" fill="#ffffff" stroke="#3c7fbf" stroke-width="1"
                stroke-dasharray="20,20" pointer-events="none"></rect>
          <text id="v-225" font-size="24px" xml:space="preserve" y="372" font-weight="normal" fill="#3c7fbf"
                text-anchor="start" pointer-events="visible" font-family="Open Sans" transform="matrix(1,0,0,1,15,0)"><tspan dy="0" >Software System</tspan></text><text
          id="v-226" font-size="17px" xml:space="preserve" y="396" font-weight="normal" fill="#3c7fbf"
          text-anchor="start" pointer-events="visible" font-family="Open Sans" transform="matrix(1,0,0,1,15,0)"><tspan dy="0" >[Software System]</tspan></text>
          <image id="v-227" pointer-events="visible"></image>
        </g>
      </g><!--z-index:14-->
      <g id="j_28" transform="translate(900,249)" style="">
        <g id="v-216" style="opacity: 1;">
          <rect id="v-217" rx="1" ry="1" stroke="#3c7fbf" stroke-width="2" pointer-events="visiblePainted"
                fill="#438dd4" width="450" height="300"
                style="fill: rgb(67, 141, 212); stroke: rgb(60, 127, 191);"></rect>
          <text id="v-218" font-size="34" xml:space="preserve" y="0.8em" font-weight="bold" text-anchor="middle"
                pointer-events="visible" font-family="Open Sans" fill="#ffffff" transform="matrix(1,0,0,1,225,121.9)"
                style="fill: rgb(255, 255, 255);"><tspan dy="0" >Web Application</tspan></text><text id="v-219"
                                                                                                     font-size="17"
                                                                                                     xml:space="preserve"
                                                                                                     y="0.8em"
                                                                                                     text-anchor="middle"
                                                                                                     font-family="Open Sans"
                                                                                                     fill="#ffffff"
                                                                                                     transform="matrix(1,0,0,1,225,162.7)"
                                                                                                     style="fill: rgb(255, 255, 255);"><tspan dy="0" >[Container]</tspan></text><text
          id="v-220" font-size="24" xml:space="preserve" display="none" y="0.8em" text-anchor="middle"
          font-family="Open Sans" fill="#ffffff" transform="matrix(1,0,0,1,225,183.1)"
          style="fill: rgb(255, 255, 255);"><tspan dy="0" style="fill-opacity: 0; stroke-opacity: 0;" >-</tspan></text>
          <g id="v-221" color="#ffffff" transform="matrix(1,0,0,1,197.5,268)" display="none"
             style="fill: rgb(255, 255, 255);">
            <g transform="translate(5 0)">
              <svg xmlns="http://www.w3.org/2000/svg" width="20" height="20" fill="currentColor" viewBox="0 0 16 16">
                <path fill-rule="evenodd"
                      d="M6.5 12a5.5 5.5 0 1 0 0-11 5.5 5.5 0 0 0 0 11zM13 6.5a6.5 6.5 0 1 1-13 0 6.5 6.5 0 0 1 13 0z"></path>
                <path
                  d="M10.344 11.742c.03.04.062.078.098.115l3.85 3.85a1 1 0 0 0 1.415-1.414l-3.85-3.85a1.007 1.007 0 0 0-.115-.1 6.538 6.538 0 0 1-1.398 1.4z"></path>
                <path fill-rule="evenodd"
                      d="M6.5 3a.5.5 0 0 1 .5.5V6h2.5a.5.5 0 0 1 0 1H7v2.5a.5.5 0 0 1-1 0V7H3.5a.5.5 0 0 1 0-1H6V3.5a.5.5 0 0 1 .5-.5z"></path>
              </svg>
            </g>
            <g transform="translate(30 0)">
              <svg xmlns="http://www.w3.org/2000/svg" width="20" height="20" fill="currentColor" viewBox="0 0 16 16">
                <path
                  d="M1 2.828c.885-.37 2.154-.769 3.388-.893 1.33-.134 2.458.063 3.112.752v9.746c-.935-.53-2.12-.603-3.213-.493-1.18.12-2.37.461-3.287.811V2.828zm7.5-.141c.654-.689 1.782-.886 3.112-.752 1.234.124 2.503.523 3.388.893v9.923c-.918-.35-2.107-.692-3.287-.81-1.094-.111-2.278-.039-3.213.492V2.687zM8 1.783C7.015.936 5.587.81 4.287.94c-1.514.153-3.042.672-3.994 1.105A.5.5 0 0 0 0 2.5v11a.5.5 0 0 0 .707.455c.882-.4 2.303-.881 3.68-1.02 1.409-.142 2.59.087 3.223.877a.5.5 0 0 0 .78 0c.633-.79 1.814-1.019 3.222-.877 1.378.139 2.8.62 3.681 1.02A.5.5 0 0 0 16 13.5v-11a.5.5 0 0 0-.293-.455c-.952-.433-2.48-.952-3.994-1.105C10.413.809 8.985.936 8 1.783z"></path>
              </svg>
            </g>
            <g></g>
            <g></g>
          </g>
          <image id="v-222"></image>
        </g>
      </g><!--z-index:15-->
      <g id="j_30" transform="translate(1650,249)" style="">
        <g id="v-228" style="opacity: 1;">
          <path d="M 0,30 a 225,30 0,0,0 450 0 a 225,30 0,0,0 -450 0 l 0,240 a 225,30 0,0,0 450 0 l 0,-240" id="v-229"
                stroke="#3c7fbf" stroke-width="2" pointer-events="visiblePainted" fill="#438dd4"
                style="fill: rgb(67, 141, 212); stroke: rgb(60, 127, 191);"></path>
          <rect id="v-230" stroke-width="0" pointer-events="visiblePainted" fill="none" stroke="none" width="450"
                height="270" x="0" y="30"></rect>
          <text id="v-231" font-size="34" xml:space="preserve" y="0.8em" font-weight="bold" text-anchor="middle"
                pointer-events="visible" font-family="Open Sans" fill="#ffffff" transform="matrix(1,0,0,1,225,144.4)"
                style="fill: rgb(255, 255, 255);"><tspan dy="0" >Database Schema</tspan></text><text id="v-232"
                                                                                                     font-size="17"
                                                                                                     xml:space="preserve"
                                                                                                     y="0.8em"
                                                                                                     text-anchor="middle"
                                                                                                     font-family="Open Sans"
                                                                                                     fill="#ffffff"
                                                                                                     transform="matrix(1,0,0,1,225,185.2)"
                                                                                                     style="fill: rgb(255, 255, 255);"><tspan dy="0" >[Container]</tspan></text><text
          id="v-233" font-size="24" xml:space="preserve" display="none" y="0.8em" text-anchor="middle"
          font-family="Open Sans" fill="#ffffff" transform="matrix(1,0,0,1,225,205.6)"
          style="fill: rgb(255, 255, 255);"><tspan dy="0" style="fill-opacity: 0; stroke-opacity: 0;" >-</tspan></text>
          <g id="v-234" font-weight="normal" text-anchor="middle" color="#ffffff" transform="matrix(1,0,0,1,222.5,268)"
             display="none" style="fill: rgb(255, 255, 255);">
            <g></g>
            <g></g>
            <g></g>
            <g></g>
          </g>
          <image id="v-235"></image>
        </g>
      </g><!--z-index:16-->
      <g id="j_31">
        <path stroke="#707070" d="M 1350 399 L 1650 399" id="v-248" stroke-width="2" stroke-dasharray="30 30"
              fill="none" style="opacity: 1;"></path>
        <path fill="black" stroke="black" d="M 0 0 0 0" transform="matrix(1,0,0,1,1350,399)"></path>
        <path fill="#707070" stroke="#707070" d="M 20 0 L 0 10 L 20 20 z" id="v-250"
              transform="matrix(-1,1.2246467991473532e-16,-1.2246467991473532e-16,-1,1650,409)"
              style="opacity: 1;"></path>
        <path d="M 1350 399 L 1650 399" id="v-249" fill="none"
              style="cursor: auto; pointer-events: visiblepainted;"></path>
        <g>
          <g id="v-242" label-idx="0" cursor="move" transform="matrix(1,0,0,1,1500,399)"
             style="cursor: default; opacity: 1;">
            <rect joint-selector="rect" id="v-245" fill="#ffffff" rx="3" ry="3" pointer-events="none"
                  width="177.49366760253906" height="61.45079231262207" transform="matrix(1,0,0,1,-88.7,-30.7)"></rect>
            <text joint-selector="text" id="v-244" font-size="24px" xml:space="preserve" y="0.8em" fill="#707070"
                  text-anchor="middle" pointer-events="none" font-family="Open Sans" font-weight="normal"
                  transform="matrix(1,0,0,1,0,-24)"><tspan dy="0" >Reads from and</tspan>
              <tspan dy="1.2em" x="0">writes to</tspan></text>
          </g>
          <g id="v-243" label-idx="1" cursor="move" transform="matrix(1,0,0,1,1490,439.79998779296875)"
             style="cursor: default; opacity: 1;">
            <rect joint-selector="rect" id="v-247" fill="#ffffff" rx="3" ry="3" width="0" height="0"
                  transform="matrix(1,0,0,1,0,0)" display="none"></rect>
            <text joint-selector="text" id="v-246" fill="#000000" font-size="14" text-anchor="middle"
                  pointer-events="none"></text>
          </g>
        </g>
        <g display="none" style="display: none;"></g>
        <g id="v-252" display="none">
          <g id="v-240">
            <path end="source" d="M 26 0 L 0 13 L 26 26 z"></path>
          </g>
          <g id="v-241">
            <path end="target" d="M 26 0 L 0 13 L 26 26 z"></path>
          </g>
        </g>
        <g id="v-251" display="none">
          <g id="v-239" transform="translate(1390, 399) ">
            <g event="remove">
              <circle r="11"></circle>
              <path transform="scale(.8) translate(-16, -16)"
                    d="M24.778,21.419 19.276,15.917 24.777,10.415 21.949,7.585 16.447,13.087 10.945,7.585 8.117,10.415 13.618,15.917 8.116,21.419 10.946,24.248 16.447,18.746 21.948,24.248z"></path>
              <title>Remove link.</title>
            </g>
            <g event="link:options">
              <circle r="11" transform="translate(25)"></circle>
              <path fill="white" transform="scale(.55) translate(29, -16)"
                    d="M31.229,17.736c0.064-0.571,0.104-1.148,0.104-1.736s-0.04-1.166-0.104-1.737l-4.377-1.557c-0.218-0.716-0.504-1.401-0.851-2.05l1.993-4.192c-0.725-0.91-1.549-1.734-2.458-2.459l-4.193,1.994c-0.647-0.347-1.334-0.632-2.049-0.849l-1.558-4.378C17.165,0.708,16.588,0.667,16,0.667s-1.166,0.041-1.737,0.105L12.707,5.15c-0.716,0.217-1.401,0.502-2.05,0.849L6.464,4.005C5.554,4.73,4.73,5.554,4.005,6.464l1.994,4.192c-0.347,0.648-0.632,1.334-0.849,2.05l-4.378,1.557C0.708,14.834,0.667,15.412,0.667,16s0.041,1.165,0.105,1.736l4.378,1.558c0.217,0.715,0.502,1.401,0.849,2.049l-1.994,4.193c0.725,0.909,1.549,1.733,2.459,2.458l4.192-1.993c0.648,0.347,1.334,0.633,2.05,0.851l1.557,4.377c0.571,0.064,1.148,0.104,1.737,0.104c0.588,0,1.165-0.04,1.736-0.104l1.558-4.377c0.715-0.218,1.399-0.504,2.049-0.851l4.193,1.993c0.909-0.725,1.733-1.549,2.458-2.458l-1.993-4.193c0.347-0.647,0.633-1.334,0.851-2.049L31.229,17.736zM16,20.871c-2.69,0-4.872-2.182-4.872-4.871c0-2.69,2.182-4.872,4.872-4.872c2.689,0,4.871,2.182,4.871,4.872C20.871,18.689,18.689,20.871,16,20.871z"></path>
              <title>Link options.</title>
            </g>
          </g>
        </g>
      </g><!--z-index:17-->
      <g id="j_32">
        <path stroke="#707070" d="M 600 399 L 900 399" id="v-262" stroke-width="2" stroke-dasharray="30 30" fill="none"
              style="opacity: 1;"></path>
        <path fill="black" stroke="black" d="M 0 0 0 0" transform="matrix(1,0,0,1,600,399)"></path>
        <path fill="#707070" stroke="#707070" d="M 20 0 L 0 10 L 20 20 z" id="v-264"
              transform="matrix(-1,1.2246467991473532e-16,-1.2246467991473532e-16,-1,900,409)"
              style="opacity: 1;"></path>
        <path d="M 600 399 L 900 399" id="v-263" fill="none"
              style="cursor: auto; pointer-events: visiblepainted;"></path>
        <g>
          <g id="v-256" label-idx="0" cursor="move" transform="matrix(1,0,0,1,750,399)"
             style="cursor: default; opacity: 1;">
            <rect joint-selector="rect" id="v-259" fill="#ffffff" rx="3" ry="3" pointer-events="none"
                  width="53.85280227661133" height="32.65079116821289" transform="matrix(1,0,0,1,-26.9,-16.3)"></rect>
            <text joint-selector="text" id="v-258" font-size="24px" xml:space="preserve" y="0.8em" fill="#707070"
                  text-anchor="middle" pointer-events="none" font-family="Open Sans" font-weight="normal"
                  transform="matrix(1,0,0,1,0,-9.6)"><tspan dy="0" >Uses</tspan></text>
          </g>
          <g id="v-257" label-idx="1" cursor="move" transform="matrix(1,0,0,1,740,425.3999938964844)"
             style="cursor: default; opacity: 1;">
            <rect joint-selector="rect" id="v-261" fill="#ffffff" rx="3" ry="3" width="0" height="0"
                  transform="matrix(1,0,0,1,0,0)" display="none"></rect>
            <text joint-selector="text" id="v-260" fill="#000000" font-size="14" text-anchor="middle"
                  pointer-events="none"></text>
          </g>
        </g>
        <g display="none" style="display: none;"></g>
        <g id="v-266" display="none">
          <g id="v-254">
            <path end="source" d="M 26 0 L 0 13 L 26 26 z"></path>
          </g>
          <g id="v-255">
            <path end="target" d="M 26 0 L 0 13 L 26 26 z"></path>
          </g>
        </g>
        <g id="v-265" display="none">
          <g id="v-253" transform="translate(640, 399) ">
            <g event="remove">
              <circle r="11"></circle>
              <path transform="scale(.8) translate(-16, -16)"
                    d="M24.778,21.419 19.276,15.917 24.777,10.415 21.949,7.585 16.447,13.087 10.945,7.585 8.117,10.415 13.618,15.917 8.116,21.419 10.946,24.248 16.447,18.746 21.948,24.248z"></path>
              <title>Remove link.</title>
            </g>
            <g event="link:options">
              <circle r="11" transform="translate(25)"></circle>
              <path fill="white" transform="scale(.55) translate(29, -16)"
                    d="M31.229,17.736c0.064-0.571,0.104-1.148,0.104-1.736s-0.04-1.166-0.104-1.737l-4.377-1.557c-0.218-0.716-0.504-1.401-0.851-2.05l1.993-4.192c-0.725-0.91-1.549-1.734-2.458-2.459l-4.193,1.994c-0.647-0.347-1.334-0.632-2.049-0.849l-1.558-4.378C17.165,0.708,16.588,0.667,16,0.667s-1.166,0.041-1.737,0.105L12.707,5.15c-0.716,0.217-1.401,0.502-2.05,0.849L6.464,4.005C5.554,4.73,4.73,5.554,4.005,6.464l1.994,4.192c-0.347,0.648-0.632,1.334-0.849,2.05l-4.378,1.557C0.708,14.834,0.667,15.412,0.667,16s0.041,1.165,0.105,1.736l4.378,1.558c0.217,0.715,0.502,1.401,0.849,2.049l-1.994,4.193c0.725,0.909,1.549,1.733,2.459,2.458l4.192-1.993c0.648,0.347,1.334,0.633,2.05,0.851l1.557,4.377c0.571,0.064,1.148,0.104,1.737,0.104c0.588,0,1.165-0.04,1.736-0.104l1.558-4.377c0.715-0.218,1.399-0.504,2.049-0.851l4.193,1.993c0.909-0.725,1.733-1.549,2.458-2.458l-1.993-4.193c0.347-0.647,0.633-1.334,0.851-2.049L31.229,17.736zM16,20.871c-2.69,0-4.872-2.182-4.872-4.871c0-2.69,2.182-4.872,4.872-4.872c2.689,0,4.871,2.182,4.871,4.872C20.871,18.689,18.689,20.871,16,20.871z"></path>
              <title>Link options.</title>
            </g>
          </g>
        </g>
      </g><!--z-index:18--><!--z-index:19--><!--z-index:20--><!--z-index:21--><!--z-index:22--><!--z-index:23--><!--z-index:24-->
    </g>
    <g></g>
    <g></g>
    <g></g>
  </g>
</svg>
