<svg xmlns="http://www.w3.org/2000/svg" version="1.1" viewBox="0 0 1830 1502"
     height="400px"
     zoomAndPan="magnify"
     style="background: #ffffff">
  <defs>
    <style>@import url(https://fonts.googleapis.com/css?family=Open+Sans:400,700);</style>
  </defs>
  <defs joint-selector="defs"></defs>
  <g joint-selector="layers" transform="matrix(1,0,0,1,0,0)">
    <g></g>
    <g><!--z-index:-3--><!--z-index:-2--><!--z-index:-1--><!--z-index:0--><!--z-index:1--><!--z-index:2--><!--z-index:3--><!--z-index:4--><!--z-index:5--><!--z-index:6--><!--z-index:7--><!--z-index:8--><!--z-index:9--><!--z-index:10-->
      <g id="j_14" transform="translate(1066,200)" style="">
        <g id="v-84" style="opacity: 1;">
          <rect id="v-85" width="564" height="1102" rx="10" ry="10" fill="#ffffff" stroke="#888888" stroke-width="1"
                pointer-events="none" style="stroke: rgb(136, 136, 136);"></rect>
          <text id="v-86" font-size="24px" xml:space="preserve" y="1063" font-weight="normal" text-anchor="start"
                pointer-events="visible" font-family="Open Sans" fill="#ffffff" transform="matrix(1,0,0,1,15,0)"
                style="fill: rgb(255, 255, 255);"><tspan dy="0" >Server 2</tspan></text><text id="v-87" font-size="17px"
                                                                                              xml:space="preserve"
                                                                                              y="1087"
                                                                                              font-weight="normal"
                                                                                              text-anchor="start"
                                                                                              pointer-events="visible"
                                                                                              font-family="Open Sans"
                                                                                              fill="#ffffff"
                                                                                              transform="matrix(1,0,0,1,15,0)"
                                                                                              style="fill: rgb(255, 255, 255);"><tspan dy="0" >[Deployment Node]</tspan></text><text
          id="v-88" font-size="40px" xml:space="preserve" display="none" y="1087" font-weight="normal" fill="#ffffff"
          text-anchor="end" pointer-events="visible" font-family="Open Sans" transform="matrix(1,0,0,1,549,0)"><tspan dy="0" style="fill-opacity: 0; stroke-opacity: 0;" >-</tspan></text>
          <image id="v-89" pointer-events="visible"></image>
        </g>
      </g><!--z-index:11-->
      <g id="j_10" transform="translate(1086,220)" style="">
        <g id="v-57" style="opacity: 1;">
          <rect id="v-58" rx="1" ry="1" stroke="#3c7fbf" stroke-width="2" pointer-events="visiblePainted" fill="#438dd4"
                width="450" height="300" style="fill: rgb(67, 141, 212); stroke: rgb(60, 127, 191);"></rect>
          <text id="v-59" font-size="34" xml:space="preserve" y="0.8em" font-weight="bold" text-anchor="middle"
                pointer-events="visible" font-family="Open Sans" fill="#ffffff" transform="matrix(1,0,0,1,225,111.7)"
                style="fill: rgb(255, 255, 255);"><tspan dy="0" >Web Application</tspan></text><text id="v-60"
                                                                                                     font-size="17"
                                                                                                     xml:space="preserve"
                                                                                                     y="0.8em"
                                                                                                     text-anchor="middle"
                                                                                                     font-family="Open Sans"
                                                                                                     fill="#ffffff"
                                                                                                     transform="matrix(1,0,0,1,225,152.5)"
                                                                                                     style="fill: rgb(255, 255, 255);"><tspan dy="0" >from Software System</tspan>
          <tspan dy="1.2em" x="0">[Container]</tspan></text><text id="v-61" font-size="24" xml:space="preserve"
                                                                  display="none" y="0.8em" text-anchor="middle"
                                                                  font-family="Open Sans" fill="#ffffff"
                                                                  transform="matrix(1,0,0,1,225,193.3)"
                                                                  style="fill: rgb(255, 255, 255);"><tspan dy="0" style="fill-opacity: 0; stroke-opacity: 0;" >-</tspan></text>
          <g id="v-62" color="#ffffff" transform="matrix(1,0,0,1,197.5,268)" display="none"
             style="fill: rgb(255, 255, 255);">
            <g transform="translate(5 0)">
              <svg xmlns="http://www.w3.org/2000/svg" width="20" height="20" fill="currentColor" viewBox="0 0 16 16">
                <path fill-rule="evenodd"
                      d="M6.5 12a5.5 5.5 0 1 0 0-11 5.5 5.5 0 0 0 0 11zM13 6.5a6.5 6.5 0 1 1-13 0 6.5 6.5 0 0 1 13 0z"></path>
                <path
                  d="M10.344 11.742c.03.04.062.078.098.115l3.85 3.85a1 1 0 0 0 1.415-1.414l-3.85-3.85a1.007 1.007 0 0 0-.115-.1 6.538 6.538 0 0 1-1.398 1.4z"></path>
                <path fill-rule="evenodd"
                      d="M6.5 3a.5.5 0 0 1 .5.5V6h2.5a.5.5 0 0 1 0 1H7v2.5a.5.5 0 0 1-1 0V7H3.5a.5.5 0 0 1 0-1H6V3.5a.5.5 0 0 1 .5-.5z"></path>
              </svg>
            </g>
            <g transform="translate(30 0)">
              <svg xmlns="http://www.w3.org/2000/svg" width="20" height="20" fill="currentColor" viewBox="0 0 16 16">
                <path
                  d="M1 2.828c.885-.37 2.154-.769 3.388-.893 1.33-.134 2.458.063 3.112.752v9.746c-.935-.53-2.12-.603-3.213-.493-1.18.12-2.37.461-3.287.811V2.828zm7.5-.141c.654-.689 1.782-.886 3.112-.752 1.234.124 2.503.523 3.388.893v9.923c-.918-.35-2.107-.692-3.287-.81-1.094-.111-2.278-.039-3.213.492V2.687zM8 1.783C7.015.936 5.587.81 4.287.94c-1.514.153-3.042.672-3.994 1.105A.5.5 0 0 0 0 2.5v11a.5.5 0 0 0 .707.455c.882-.4 2.303-.881 3.68-1.02 1.409-.142 2.59.087 3.223.877a.5.5 0 0 0 .78 0c.633-.79 1.814-1.019 3.222-.877 1.378.139 2.8.62 3.681 1.02A.5.5 0 0 0 16 13.5v-11a.5.5 0 0 0-.293-.455c-.952-.433-2.48-.952-3.994-1.105C10.413.809 8.985.936 8 1.783z"></path>
              </svg>
            </g>
            <g></g>
            <g></g>
          </g>
          <image id="v-63"></image>
        </g>
      </g><!--z-index:12-->
      <g id="j_15" transform="translate(1120,800)" style="">
        <g id="v-90" style="opacity: 1;">
          <rect id="v-91" width="490" height="411" rx="10" ry="10" fill="#ffffff" stroke="#888888" stroke-width="1"
                pointer-events="none" style="stroke: rgb(136, 136, 136);"></rect>
          <text id="v-92" font-size="24px" xml:space="preserve" y="372" font-weight="normal" text-anchor="start"
                pointer-events="visible" font-family="Open Sans" fill="#ffffff" transform="matrix(1,0,0,1,15,0)"
                style="fill: rgb(255, 255, 255);"><tspan dy="0" >Database Server</tspan></text><text id="v-93"
                                                                                                     font-size="17px"
                                                                                                     xml:space="preserve"
                                                                                                     y="396"
                                                                                                     font-weight="normal"
                                                                                                     text-anchor="start"
                                                                                                     pointer-events="visible"
                                                                                                     font-family="Open Sans"
                                                                                                     fill="#ffffff"
                                                                                                     transform="matrix(1,0,0,1,15,0)"
                                                                                                     style="fill: rgb(255, 255, 255);"><tspan dy="0" >[Deployment Node]</tspan></text><text
          id="v-94" font-size="40px" xml:space="preserve" display="none" y="396" font-weight="normal" fill="#ffffff"
          text-anchor="end" pointer-events="visible" font-family="Open Sans" transform="matrix(1,0,0,1,475,0)"><tspan dy="0" style="fill-opacity: 0; stroke-opacity: 0;" >-</tspan></text>
          <image id="v-95" pointer-events="visible"></image>
        </g>
      </g><!--z-index:13-->
      <g id="j_11" transform="translate(1140,820)" style="">
        <g id="v-64" style="opacity: 1;">
          <path d="M 0,30 a 225,30 0,0,0 450 0 a 225,30 0,0,0 -450 0 l 0,240 a 225,30 0,0,0 450 0 l 0,-240" id="v-65"
                stroke="#3c7fbf" stroke-width="2" pointer-events="visiblePainted" fill="#438dd4"
                style="fill: rgb(67, 141, 212); stroke: rgb(60, 127, 191);"></path>
          <rect id="v-66" stroke-width="0" pointer-events="visiblePainted" fill="none" stroke="none" width="450"
                height="270" x="0" y="30"></rect>
          <text id="v-67" font-size="34" xml:space="preserve" y="0.8em" font-weight="bold" text-anchor="middle"
                pointer-events="visible" font-family="Open Sans" fill="#ffffff" transform="matrix(1,0,0,1,225,134.2)"
                style="fill: rgb(255, 255, 255);"><tspan dy="0" >Database Schema</tspan></text><text id="v-68"
                                                                                                     font-size="17"
                                                                                                     xml:space="preserve"
                                                                                                     y="0.8em"
                                                                                                     text-anchor="middle"
                                                                                                     font-family="Open Sans"
                                                                                                     fill="#ffffff"
                                                                                                     transform="matrix(1,0,0,1,225,175)"
                                                                                                     style="fill: rgb(255, 255, 255);"><tspan dy="0" >from Software System</tspan>
          <tspan dy="1.2em" x="0">[Container]</tspan></text><text id="v-69" font-size="24" xml:space="preserve"
                                                                  display="none" y="0.8em" text-anchor="middle"
                                                                  font-family="Open Sans" fill="#ffffff"
                                                                  transform="matrix(1,0,0,1,225,215.8)"
                                                                  style="fill: rgb(255, 255, 255);"><tspan dy="0" style="fill-opacity: 0; stroke-opacity: 0;" >-</tspan></text>
          <g id="v-70" font-weight="normal" text-anchor="middle" color="#ffffff" transform="matrix(1,0,0,1,222.5,268)"
             display="none" style="fill: rgb(255, 255, 255);">
            <g></g>
            <g></g>
            <g></g>
            <g></g>
          </g>
          <image id="v-71"></image>
        </g>
      </g><!--z-index:14-->
      <g id="j_12" transform="translate(200,200)" style="">
        <g id="v-72" style="opacity: 1;">
          <rect id="v-73" width="556" height="1102" rx="10" ry="10" fill="#ffffff" stroke="#888888" stroke-width="1"
                pointer-events="none" style="stroke: rgb(136, 136, 136);"></rect>
          <text id="v-74" font-size="24px" xml:space="preserve" y="1063" font-weight="normal" text-anchor="start"
                pointer-events="visible" font-family="Open Sans" fill="#ffffff" transform="matrix(1,0,0,1,15,0)"
                style="fill: rgb(255, 255, 255);"><tspan dy="0" >Server 1</tspan></text><text id="v-75" font-size="17px"
                                                                                              xml:space="preserve"
                                                                                              y="1087"
                                                                                              font-weight="normal"
                                                                                              text-anchor="start"
                                                                                              pointer-events="visible"
                                                                                              font-family="Open Sans"
                                                                                              fill="#ffffff"
                                                                                              transform="matrix(1,0,0,1,15,0)"
                                                                                              style="fill: rgb(255, 255, 255);"><tspan dy="0" >[Deployment Node]</tspan></text><text
          id="v-76" font-size="40px" xml:space="preserve" display="none" y="1087" font-weight="normal" fill="#ffffff"
          text-anchor="end" pointer-events="visible" font-family="Open Sans" transform="matrix(1,0,0,1,541,0)"><tspan dy="0" style="fill-opacity: 0; stroke-opacity: 0;" >-</tspan></text>
          <image id="v-77" pointer-events="visible"></image>
        </g>
      </g><!--z-index:15-->
      <g id="j_8" transform="translate(286,220)" style="">
        <g id="v-42" style="opacity: 1;">
          <rect id="v-43" rx="1" ry="1" stroke="#3c7fbf" stroke-width="2" pointer-events="visiblePainted" fill="#438dd4"
                width="450" height="300" style="fill: rgb(67, 141, 212); stroke: rgb(60, 127, 191);"></rect>
          <text id="v-44" font-size="34" xml:space="preserve" y="0.8em" font-weight="bold" text-anchor="middle"
                pointer-events="visible" font-family="Open Sans" fill="#ffffff" transform="matrix(1,0,0,1,225,111.7)"
                style="fill: rgb(255, 255, 255);"><tspan dy="0" >Web Application</tspan></text><text id="v-45"
                                                                                                     font-size="17"
                                                                                                     xml:space="preserve"
                                                                                                     y="0.8em"
                                                                                                     text-anchor="middle"
                                                                                                     font-family="Open Sans"
                                                                                                     fill="#ffffff"
                                                                                                     transform="matrix(1,0,0,1,225,152.5)"
                                                                                                     style="fill: rgb(255, 255, 255);"><tspan dy="0" >from Software System</tspan>
          <tspan dy="1.2em" x="0">[Container]</tspan></text><text id="v-46" font-size="24" xml:space="preserve"
                                                                  display="none" y="0.8em" text-anchor="middle"
                                                                  font-family="Open Sans" fill="#ffffff"
                                                                  transform="matrix(1,0,0,1,225,193.3)"
                                                                  style="fill: rgb(255, 255, 255);"><tspan dy="0" style="fill-opacity: 0; stroke-opacity: 0;" >-</tspan></text>
          <g id="v-47" color="#ffffff" transform="matrix(1,0,0,1,197.5,268)" display="none"
             style="fill: rgb(255, 255, 255);">
            <g transform="translate(5 0)">
              <svg xmlns="http://www.w3.org/2000/svg" width="20" height="20" fill="currentColor" viewBox="0 0 16 16">
                <path fill-rule="evenodd"
                      d="M6.5 12a5.5 5.5 0 1 0 0-11 5.5 5.5 0 0 0 0 11zM13 6.5a6.5 6.5 0 1 1-13 0 6.5 6.5 0 0 1 13 0z"></path>
                <path
                  d="M10.344 11.742c.03.04.062.078.098.115l3.85 3.85a1 1 0 0 0 1.415-1.414l-3.85-3.85a1.007 1.007 0 0 0-.115-.1 6.538 6.538 0 0 1-1.398 1.4z"></path>
                <path fill-rule="evenodd"
                      d="M6.5 3a.5.5 0 0 1 .5.5V6h2.5a.5.5 0 0 1 0 1H7v2.5a.5.5 0 0 1-1 0V7H3.5a.5.5 0 0 1 0-1H6V3.5a.5.5 0 0 1 .5-.5z"></path>
              </svg>
            </g>
            <g transform="translate(30 0)">
              <svg xmlns="http://www.w3.org/2000/svg" width="20" height="20" fill="currentColor" viewBox="0 0 16 16">
                <path
                  d="M1 2.828c.885-.37 2.154-.769 3.388-.893 1.33-.134 2.458.063 3.112.752v9.746c-.935-.53-2.12-.603-3.213-.493-1.18.12-2.37.461-3.287.811V2.828zm7.5-.141c.654-.689 1.782-.886 3.112-.752 1.234.124 2.503.523 3.388.893v9.923c-.918-.35-2.107-.692-3.287-.81-1.094-.111-2.278-.039-3.213.492V2.687zM8 1.783C7.015.936 5.587.81 4.287.94c-1.514.153-3.042.672-3.994 1.105A.5.5 0 0 0 0 2.5v11a.5.5 0 0 0 .707.455c.882-.4 2.303-.881 3.68-1.02 1.409-.142 2.59.087 3.223.877a.5.5 0 0 0 .78 0c.633-.79 1.814-1.019 3.222-.877 1.378.139 2.8.62 3.681 1.02A.5.5 0 0 0 16 13.5v-11a.5.5 0 0 0-.293-.455c-.952-.433-2.48-.952-3.994-1.105C10.413.809 8.985.936 8 1.783z"></path>
              </svg>
            </g>
            <g></g>
            <g></g>
          </g>
          <image id="v-48"></image>
        </g>
      </g><!--z-index:16-->
      <g id="j_13" transform="translate(220,800)" style="">
        <g id="v-78" style="opacity: 1;">
          <rect id="v-79" width="490" height="411" rx="10" ry="10" fill="#ffffff" stroke="#888888" stroke-width="1"
                pointer-events="none" style="stroke: rgb(136, 136, 136);"></rect>
          <text id="v-80" font-size="24px" xml:space="preserve" y="372" font-weight="normal" text-anchor="start"
                pointer-events="visible" font-family="Open Sans" fill="#ffffff" transform="matrix(1,0,0,1,15,0)"
                style="fill: rgb(255, 255, 255);"><tspan dy="0" >Database Server</tspan></text><text id="v-81"
                                                                                                     font-size="17px"
                                                                                                     xml:space="preserve"
                                                                                                     y="396"
                                                                                                     font-weight="normal"
                                                                                                     text-anchor="start"
                                                                                                     pointer-events="visible"
                                                                                                     font-family="Open Sans"
                                                                                                     fill="#ffffff"
                                                                                                     transform="matrix(1,0,0,1,15,0)"
                                                                                                     style="fill: rgb(255, 255, 255);"><tspan dy="0" >[Deployment Node]</tspan></text><text
          id="v-82" font-size="40px" xml:space="preserve" display="none" y="396" font-weight="normal" fill="#ffffff"
          text-anchor="end" pointer-events="visible" font-family="Open Sans" transform="matrix(1,0,0,1,475,0)"><tspan dy="0" style="fill-opacity: 0; stroke-opacity: 0;" >-</tspan></text>
          <image id="v-83" pointer-events="visible"></image>
        </g>
      </g><!--z-index:17-->
      <g id="j_9" transform="translate(240,820)" style="">
        <g id="v-49" style="opacity: 1;">
          <path d="M 0,30 a 225,30 0,0,0 450 0 a 225,30 0,0,0 -450 0 l 0,240 a 225,30 0,0,0 450 0 l 0,-240" id="v-50"
                stroke="#3c7fbf" stroke-width="2" pointer-events="visiblePainted" fill="#438dd4"
                style="fill: rgb(67, 141, 212); stroke: rgb(60, 127, 191);"></path>
          <rect id="v-51" stroke-width="0" pointer-events="visiblePainted" fill="none" stroke="none" width="450"
                height="270" x="0" y="30"></rect>
          <text id="v-52" font-size="34" xml:space="preserve" y="0.8em" font-weight="bold" text-anchor="middle"
                pointer-events="visible" font-family="Open Sans" fill="#ffffff" transform="matrix(1,0,0,1,225,134.2)"
                style="fill: rgb(255, 255, 255);"><tspan dy="0" >Database Schema</tspan></text><text id="v-53"
                                                                                                     font-size="17"
                                                                                                     xml:space="preserve"
                                                                                                     y="0.8em"
                                                                                                     text-anchor="middle"
                                                                                                     font-family="Open Sans"
                                                                                                     fill="#ffffff"
                                                                                                     transform="matrix(1,0,0,1,225,175)"
                                                                                                     style="fill: rgb(255, 255, 255);"><tspan dy="0" >from Software System</tspan>
          <tspan dy="1.2em" x="0">[Container]</tspan></text><text id="v-54" font-size="24" xml:space="preserve"
                                                                  display="none" y="0.8em" text-anchor="middle"
                                                                  font-family="Open Sans" fill="#ffffff"
                                                                  transform="matrix(1,0,0,1,225,215.8)"
                                                                  style="fill: rgb(255, 255, 255);"><tspan dy="0" style="fill-opacity: 0; stroke-opacity: 0;" >-</tspan></text>
          <g id="v-55" font-weight="normal" text-anchor="middle" color="#ffffff" transform="matrix(1,0,0,1,222.5,268)"
             display="none" style="fill: rgb(255, 255, 255);">
            <g></g>
            <g></g>
            <g></g>
            <g></g>
          </g>
          <image id="v-56"></image>
        </g>
      </g><!--z-index:18-->
      <g id="j_7" transform="translate(20,1465.6)">
        <g id="v-40">
          <text  id="v-41" font-size="22px" xml:space="preserve" y="0.8em" font-weight="normal" text-anchor="start" fill="#aaaaaa" pointer-events="none" display="block" font-family="Open Sans"><tspan dy="0" >Monday, March 10, 2025 at 5:15 PM Central European Standard Time</tspan></text>
        </g>
      </g><!--z-index:19-->
      <g id="j_6" transform="translate(20,1422.3999999999999)">
        <g id="v-38">
          <text  id="v-39" font-size="36px" xml:space="preserve" y="0.8em" font-weight="normal" text-anchor="start" fill="#000000" pointer-events="none" display="block" font-family="Open Sans"><tspan dy="0" >[Deployment] Production</tspan></text>
        </g>
      </g><!--z-index:20-->
      <g id="j_16">
        <path stroke="#707070" d="M 500 520 L 477 820" id="v-108" stroke-width="2" stroke-dasharray="30 30" fill="none"
              style="opacity: 1;"></path>
        <path fill="black" stroke="black" d="M 0 0 0 0"
              transform="matrix(-0.07644236820985931,0.99707400143744,-0.99707400143744,-0.07644236820985931,499.5,520)"></path>
        <path fill="#707070" stroke="#707070" d="M 20 0 L 0 10 L 20 20 z" id="v-110"
              transform="matrix(0.07644223544142398,-0.9970740116163482,0.9970740116163482,0.07644223544142398,466.5292723438754,819.2355536015931)"
              style="opacity: 1;"></path>
        <path d="M 500 520 L 477 820" id="v-109" fill="none"
              style="cursor: auto; pointer-events: visiblepainted;"></path>
        <g>
          <g id="v-102" label-idx="0" cursor="move" transform="matrix(1,0,0,1,488.5,670)"
             style="cursor: default; opacity: 1;">
            <rect joint-selector="rect" id="v-105" fill="#ffffff" rx="3" ry="3" pointer-events="none"
                  width="177.42893981933594" height="61.297210693359375" transform="matrix(1,0,0,1,-88.7,-30.6)"></rect>
            <text joint-selector="text" id="v-104" font-size="24px" xml:space="preserve" y="0.8em" fill="#707070"
                  text-anchor="middle" pointer-events="none" font-family="Open Sans" font-weight="normal"
                  transform="matrix(1,0,0,1,0,-24.3)"><tspan dy="0" >Reads from and</tspan>
              <tspan dy="1.2em" x="0">writes to</tspan></text>
          </g>
          <g id="v-103" label-idx="1" cursor="move" transform="matrix(1,0,0,1,478.5,710.7999877929688)"
             style="cursor: default; opacity: 1;">
            <rect joint-selector="rect" id="v-107" fill="#ffffff" rx="3" ry="3" width="0" height="0"
                  transform="matrix(1,0,0,1,0,0)" display="none"></rect>
            <text joint-selector="text" id="v-106" fill="#000000" font-size="14" text-anchor="middle"
                  pointer-events="none"></text>
          </g>
        </g>
        <g display="none" style="display: none;"></g>
        <g id="v-112" display="none">
          <g id="v-100">
            <path end="source" d="M 26 0 L 0 13 L 26 26 z"></path>
          </g>
          <g id="v-101">
            <path end="target" d="M 26 0 L 0 13 L 26 26 z"></path>
          </g>
        </g>
        <g id="v-111" display="none">
          <g id="v-99" transform="translate(496.9423063890239, 559.8829601431663) ">
            <g event="remove">
              <circle r="11"></circle>
              <path transform="scale(.8) translate(-16, -16)"
                    d="M24.778,21.419 19.276,15.917 24.777,10.415 21.949,7.585 16.447,13.087 10.945,7.585 8.117,10.415 13.618,15.917 8.116,21.419 10.946,24.248 16.447,18.746 21.948,24.248z"></path>
              <title>Remove link.</title>
            </g>
            <g event="link:options">
              <circle r="11" transform="translate(25)"></circle>
              <path fill="white" transform="scale(.55) translate(29, -16)"
                    d="M31.229,17.736c0.064-0.571,0.104-1.148,0.104-1.736s-0.04-1.166-0.104-1.737l-4.377-1.557c-0.218-0.716-0.504-1.401-0.851-2.05l1.993-4.192c-0.725-0.91-1.549-1.734-2.458-2.459l-4.193,1.994c-0.647-0.347-1.334-0.632-2.049-0.849l-1.558-4.378C17.165,0.708,16.588,0.667,16,0.667s-1.166,0.041-1.737,0.105L12.707,5.15c-0.716,0.217-1.401,0.502-2.05,0.849L6.464,4.005C5.554,4.73,4.73,5.554,4.005,6.464l1.994,4.192c-0.347,0.648-0.632,1.334-0.849,2.05l-4.378,1.557C0.708,14.834,0.667,15.412,0.667,16s0.041,1.165,0.105,1.736l4.378,1.558c0.217,0.715,0.502,1.401,0.849,2.049l-1.994,4.193c0.725,0.909,1.549,1.733,2.459,2.458l4.192-1.993c0.648,0.347,1.334,0.633,2.05,0.851l1.557,4.377c0.571,0.064,1.148,0.104,1.737,0.104c0.588,0,1.165-0.04,1.736-0.104l1.558-4.377c0.715-0.218,1.399-0.504,2.049-0.851l4.193,1.993c0.909-0.725,1.733-1.549,2.458-2.458l-1.993-4.193c0.347-0.647,0.633-1.334,0.851-2.049L31.229,17.736zM16,20.871c-2.69,0-4.872-2.182-4.872-4.871c0-2.69,2.182-4.872,4.872-4.872c2.689,0,4.871,2.182,4.871,4.872C20.871,18.689,18.689,20.871,16,20.871z"></path>
              <title>Link options.</title>
            </g>
          </g>
        </g>
      </g><!--z-index:21-->
      <g id="j_17">
        <path stroke="#707070" d="M 1100 520 L 677 820" id="v-125" stroke-width="2" stroke-dasharray="30 30" fill="none"
              style="opacity: 1;"></path>
        <path fill="black" stroke="black" d="M 0 0 0 0"
              transform="matrix(-0.8156833237040246,0.5784986736641279,-0.5784986736641279,-0.8156833237040246,1099.5,520)"></path>
        <path fill="#707070" stroke="#707070" d="M 20 0 L 0 10 L 20 20 z" id="v-127"
              transform="matrix(0.8156831696404797,-0.5784988908937165,0.5784988908937165,0.8156831696404797,670.7150397462204,811.8431840680012)"
              style="opacity: 1;"></path>
        <path d="M 1100 520 L 677 820" id="v-126" fill="none"
              style="cursor: auto; pointer-events: visiblepainted;"></path>
        <g>
          <g id="v-119" label-idx="0" cursor="move" transform="matrix(1,0,0,1,888.5,670)"
             style="cursor: default; opacity: 1;">
            <rect joint-selector="rect" id="v-122" fill="#ffffff" rx="3" ry="3" pointer-events="none"
                  width="177.42893981933594" height="61.297210693359375" transform="matrix(1,0,0,1,-88.7,-30.6)"></rect>
            <text joint-selector="text" id="v-121" font-size="24px" xml:space="preserve" y="0.8em" fill="#707070"
                  text-anchor="middle" pointer-events="none" font-family="Open Sans" font-weight="normal"
                  transform="matrix(1,0,0,1,0,-24.3)"><tspan dy="0" >Reads from and</tspan>
              <tspan dy="1.2em" x="0">writes to</tspan></text>
          </g>
          <g id="v-120" label-idx="1" cursor="move" transform="matrix(1,0,0,1,878.5,710.7999877929688)"
             style="cursor: default; opacity: 1;">
            <rect joint-selector="rect" id="v-124" fill="#ffffff" rx="3" ry="3" width="0" height="0"
                  transform="matrix(1,0,0,1,0,0)" display="none"></rect>
            <text joint-selector="text" id="v-123" fill="#000000" font-size="14" text-anchor="middle"
                  pointer-events="none"></text>
          </g>
        </g>
        <g display="none" style="display: none;"></g>
        <g id="v-129" display="none">
          <g id="v-117">
            <path end="source" d="M 26 0 L 0 13 L 26 26 z"></path>
          </g>
          <g id="v-118">
            <path end="target" d="M 26 0 L 0 13 L 26 26 z"></path>
          </g>
        </g>
        <g id="v-128" display="none">
          <g id="v-116" transform="translate(1067.3726696466329, 543.1399506052248) ">
            <g event="remove">
              <circle r="11"></circle>
              <path transform="scale(.8) translate(-16, -16)"
                    d="M24.778,21.419 19.276,15.917 24.777,10.415 21.949,7.585 16.447,13.087 10.945,7.585 8.117,10.415 13.618,15.917 8.116,21.419 10.946,24.248 16.447,18.746 21.948,24.248z"></path>
              <title>Remove link.</title>
            </g>
            <g event="link:options">
              <circle r="11" transform="translate(25)"></circle>
              <path fill="white" transform="scale(.55) translate(29, -16)"
                    d="M31.229,17.736c0.064-0.571,0.104-1.148,0.104-1.736s-0.04-1.166-0.104-1.737l-4.377-1.557c-0.218-0.716-0.504-1.401-0.851-2.05l1.993-4.192c-0.725-0.91-1.549-1.734-2.458-2.459l-4.193,1.994c-0.647-0.347-1.334-0.632-2.049-0.849l-1.558-4.378C17.165,0.708,16.588,0.667,16,0.667s-1.166,0.041-1.737,0.105L12.707,5.15c-0.716,0.217-1.401,0.502-2.05,0.849L6.464,4.005C5.554,4.73,4.73,5.554,4.005,6.464l1.994,4.192c-0.347,0.648-0.632,1.334-0.849,2.05l-4.378,1.557C0.708,14.834,0.667,15.412,0.667,16s0.041,1.165,0.105,1.736l4.378,1.558c0.217,0.715,0.502,1.401,0.849,2.049l-1.994,4.193c0.725,0.909,1.549,1.733,2.459,2.458l4.192-1.993c0.648,0.347,1.334,0.633,2.05,0.851l1.557,4.377c0.571,0.064,1.148,0.104,1.737,0.104c0.588,0,1.165-0.04,1.736-0.104l1.558-4.377c0.715-0.218,1.399-0.504,2.049-0.851l4.193,1.993c0.909-0.725,1.733-1.549,2.458-2.458l-1.993-4.193c0.347-0.647,0.633-1.334,0.851-2.049L31.229,17.736zM16,20.871c-2.69,0-4.872-2.182-4.872-4.871c0-2.69,2.182-4.872,4.872-4.872c2.689,0,4.871,2.182,4.871,4.872C20.871,18.689,18.689,20.871,16,20.871z"></path>
              <title>Link options.</title>
            </g>
          </g>
        </g>
      </g><!--z-index:22-->
      <g id="j_18">
        <path stroke="#707070" d="M 725 520 L 1152 820" id="v-142" stroke-width="2" stroke-dasharray="30 30" fill="none"
              style="opacity: 1;"></path>
        <path fill="black" stroke="black" d="M 0 0 0 0"
              transform="matrix(0.8182404156726362,0.5748761798508191,-0.5748761798508191,0.8182404156726362,724.5,520)"></path>
        <path fill="#707070" stroke="#707070" d="M 20 0 L 0 10 L 20 20 z" id="v-144"
              transform="matrix(-0.8182404539473312,-0.5748761253731668,0.5748761253731668,-0.8182404539473312,1145.7512702388667,828.1823864963301)"
              style="opacity: 1;"></path>
        <path d="M 725 520 L 1152 820" id="v-143" fill="none"
              style="cursor: auto; pointer-events: visiblepainted;"></path>
        <g>
          <g id="v-136" label-idx="0" cursor="move" transform="matrix(1,0,0,1,938.5,670)"
             style="cursor: default; opacity: 1;">
            <rect joint-selector="rect" id="v-139" fill="#ffffff" rx="3" ry="3" pointer-events="none"
                  width="177.42893981933594" height="61.297210693359375" transform="matrix(1,0,0,1,-88.7,-30.6)"></rect>
            <text joint-selector="text" id="v-138" font-size="24px" xml:space="preserve" y="0.8em" fill="#707070"
                  text-anchor="middle" pointer-events="none" font-family="Open Sans" font-weight="normal"
                  transform="matrix(1,0,0,1,0,-24.3)"><tspan dy="0" >Reads from and</tspan>
              <tspan dy="1.2em" x="0">writes to</tspan></text>
          </g>
          <g id="v-137" label-idx="1" cursor="move" transform="matrix(1,0,0,1,928.5,710.7999877929688)"
             style="cursor: default; opacity: 1;">
            <rect joint-selector="rect" id="v-141" fill="#ffffff" rx="3" ry="3" width="0" height="0"
                  transform="matrix(1,0,0,1,0,0)" display="none"></rect>
            <text joint-selector="text" id="v-140" fill="#000000" font-size="14" text-anchor="middle"
                  pointer-events="none"></text>
          </g>
        </g>
        <g display="none" style="display: none;"></g>
        <g id="v-146" display="none">
          <g id="v-134">
            <path end="source" d="M 26 0 L 0 13 L 26 26 z"></path>
          </g>
          <g id="v-135">
            <path end="target" d="M 26 0 L 0 13 L 26 26 z"></path>
          </g>
        </g>
        <g id="v-145" display="none">
          <g id="v-133" transform="translate(757.7296168073274, 542.9950469372324) ">
            <g event="remove">
              <circle r="11"></circle>
              <path transform="scale(.8) translate(-16, -16)"
                    d="M24.778,21.419 19.276,15.917 24.777,10.415 21.949,7.585 16.447,13.087 10.945,7.585 8.117,10.415 13.618,15.917 8.116,21.419 10.946,24.248 16.447,18.746 21.948,24.248z"></path>
              <title>Remove link.</title>
            </g>
            <g event="link:options">
              <circle r="11" transform="translate(25)"></circle>
              <path fill="white" transform="scale(.55) translate(29, -16)"
                    d="M31.229,17.736c0.064-0.571,0.104-1.148,0.104-1.736s-0.04-1.166-0.104-1.737l-4.377-1.557c-0.218-0.716-0.504-1.401-0.851-2.05l1.993-4.192c-0.725-0.91-1.549-1.734-2.458-2.459l-4.193,1.994c-0.647-0.347-1.334-0.632-2.049-0.849l-1.558-4.378C17.165,0.708,16.588,0.667,16,0.667s-1.166,0.041-1.737,0.105L12.707,5.15c-0.716,0.217-1.401,0.502-2.05,0.849L6.464,4.005C5.554,4.73,4.73,5.554,4.005,6.464l1.994,4.192c-0.347,0.648-0.632,1.334-0.849,2.05l-4.378,1.557C0.708,14.834,0.667,15.412,0.667,16s0.041,1.165,0.105,1.736l4.378,1.558c0.217,0.715,0.502,1.401,0.849,2.049l-1.994,4.193c0.725,0.909,1.549,1.733,2.459,2.458l4.192-1.993c0.648,0.347,1.334,0.633,2.05,0.851l1.557,4.377c0.571,0.064,1.148,0.104,1.737,0.104c0.588,0,1.165-0.04,1.736-0.104l1.558-4.377c0.715-0.218,1.399-0.504,2.049-0.851l4.193,1.993c0.909-0.725,1.733-1.549,2.458-2.458l-1.993-4.193c0.347-0.647,0.633-1.334,0.851-2.049L31.229,17.736zM16,20.871c-2.69,0-4.872-2.182-4.872-4.871c0-2.69,2.182-4.872,4.872-4.872c2.689,0,4.871,2.182,4.871,4.872C20.871,18.689,18.689,20.871,16,20.871z"></path>
              <title>Link options.</title>
            </g>
          </g>
        </g>
      </g><!--z-index:23-->
      <g id="j_19">
        <path stroke="#707070" d="M 1325 520 L 1352 820" id="v-159" stroke-width="2" stroke-dasharray="30 30"
              fill="none" style="opacity: 1;"></path>
        <path fill="black" stroke="black" d="M 0 0 0 0"
              transform="matrix(0.0896376416553163,0.9959744440488786,-0.9959744440488786,0.0896376416553163,1324.5,520)"></path>
        <path fill="#707070" stroke="#707070" d="M 20 0 L 0 10 L 20 20 z" id="v-161"
              transform="matrix(-0.08963764165531621,-0.9959744440488787,0.9959744440488787,-0.08963764165531621,1341.5402696713768,820.896404060167)"
              style="opacity: 1;"></path>
        <path d="M 1325 520 L 1352 820" id="v-160" fill="none"
              style="cursor: auto; pointer-events: visiblepainted;"></path>
        <g>
          <g id="v-153" label-idx="0" cursor="move" transform="matrix(1,0,0,1,1338.5,670)"
             style="cursor: default; opacity: 1;">
            <rect joint-selector="rect" id="v-156" fill="#ffffff" rx="3" ry="3" pointer-events="none"
                  width="177.42893981933594" height="61.297210693359375" transform="matrix(1,0,0,1,-88.7,-30.6)"></rect>
            <text joint-selector="text" id="v-155" font-size="24px" xml:space="preserve" y="0.8em" fill="#707070"
                  text-anchor="middle" pointer-events="none" font-family="Open Sans" font-weight="normal"
                  transform="matrix(1,0,0,1,0,-24.3)"><tspan dy="0" >Reads from and</tspan>
              <tspan dy="1.2em" x="0">writes to</tspan></text>
          </g>
          <g id="v-154" label-idx="1" cursor="move" transform="matrix(1,0,0,1,1328.5,710.7999877929688)"
             style="cursor: default; opacity: 1;">
            <rect joint-selector="rect" id="v-158" fill="#ffffff" rx="3" ry="3" width="0" height="0"
                  transform="matrix(1,0,0,1,0,0)" display="none"></rect>
            <text joint-selector="text" id="v-157" fill="#000000" font-size="14" text-anchor="middle"
                  pointer-events="none"></text>
          </g>
        </g>
        <g display="none" style="display: none;"></g>
        <g id="v-163" display="none">
          <g id="v-151">
            <path end="source" d="M 26 0 L 0 13 L 26 26 z"></path>
          </g>
          <g id="v-152">
            <path end="target" d="M 26 0 L 0 13 L 26 26 z"></path>
          </g>
        </g>
        <g id="v-162" display="none">
          <g id="v-150" transform="translate(1328.5855079798355, 559.8389775537291) ">
            <g event="remove">
              <circle r="11"></circle>
              <path transform="scale(.8) translate(-16, -16)"
                    d="M24.778,21.419 19.276,15.917 24.777,10.415 21.949,7.585 16.447,13.087 10.945,7.585 8.117,10.415 13.618,15.917 8.116,21.419 10.946,24.248 16.447,18.746 21.948,24.248z"></path>
              <title>Remove link.</title>
            </g>
            <g event="link:options">
              <circle r="11" transform="translate(25)"></circle>
              <path fill="white" transform="scale(.55) translate(29, -16)"
                    d="M31.229,17.736c0.064-0.571,0.104-1.148,0.104-1.736s-0.04-1.166-0.104-1.737l-4.377-1.557c-0.218-0.716-0.504-1.401-0.851-2.05l1.993-4.192c-0.725-0.91-1.549-1.734-2.458-2.459l-4.193,1.994c-0.647-0.347-1.334-0.632-2.049-0.849l-1.558-4.378C17.165,0.708,16.588,0.667,16,0.667s-1.166,0.041-1.737,0.105L12.707,5.15c-0.716,0.217-1.401,0.502-2.05,0.849L6.464,4.005C5.554,4.73,4.73,5.554,4.005,6.464l1.994,4.192c-0.347,0.648-0.632,1.334-0.849,2.05l-4.378,1.557C0.708,14.834,0.667,15.412,0.667,16s0.041,1.165,0.105,1.736l4.378,1.558c0.217,0.715,0.502,1.401,0.849,2.049l-1.994,4.193c0.725,0.909,1.549,1.733,2.459,2.458l4.192-1.993c0.648,0.347,1.334,0.633,2.05,0.851l1.557,4.377c0.571,0.064,1.148,0.104,1.737,0.104c0.588,0,1.165-0.04,1.736-0.104l1.558-4.377c0.715-0.218,1.399-0.504,2.049-0.851l4.193,1.993c0.909-0.725,1.733-1.549,2.458-2.458l-1.993-4.193c0.347-0.647,0.633-1.334,0.851-2.049L31.229,17.736zM16,20.871c-2.69,0-4.872-2.182-4.872-4.871c0-2.69,2.182-4.872,4.872-4.872c2.689,0,4.871,2.182,4.871,4.872C20.871,18.689,18.689,20.871,16,20.871z"></path>
              <title>Link options.</title>
            </g>
          </g>
        </g>
      </g><!--z-index:24-->
    </g>
    <g></g>
    <g></g>
    <g></g>
  </g>
</svg>
